<svg width="554" height="270" viewBox="0 0 554 270" fill="none" xmlns="http://www.w3.org/2000/svg">
<path d="M519.951 228.229H80.2463V229.051H519.951V228.229Z" fill="#CCCCCC"/>
<path d="M519.951 187.9H80.2463V188.723H519.951V187.9Z" fill="#CCCCCC"/>
<path d="M519.951 147.582H80.2463V148.405H519.951V147.582Z" fill="#CCCCCC"/>
<path d="M519.951 106.436H80.2463V107.259H519.951V106.436Z" fill="#434343"/>
<path d="M519.951 66.1073H80.2463V66.9302H519.951V66.1073Z" fill="#CCCCCC"/>
<path d="M519.952 25.7855H80.2464V26.6085H519.952V25.7855Z" fill="#CCCCCC"/>
<path d="M519.951 207.657H80.2463V208.48H519.951V207.657Z" fill="#EBEBEB"/>
<path d="M519.951 167.329H80.2463V168.152H519.951V167.329Z" fill="#EBEBEB"/>
<path d="M519.951 127.007H80.2463V127.83H519.951V127.007Z" fill="#EBEBEB"/>
<path d="M519.951 86.6785H80.2463V87.5014H519.951V86.6785Z" fill="#EBEBEB"/>
<path d="M519.951 46.3602H80.2463V47.1832H519.951V46.3602Z" fill="#EBEBEB"/>
<path d="M519.952 228.229H80.2466V229.052H519.952V228.229Z" fill="#333333"/>
<path d="M117.248 178.031C117.248 178.031 166.003 186.467 190.381 167.909C214.759 149.352 239.136 73.4353 263.514 66.6872C287.892 59.9391 312.27 118.985 336.647 127.42C361.025 135.856 385.403 107.176 409.78 117.298C434.158 127.42 482.913 188.154 482.913 188.154" stroke="url(#paint0_linear_2_13205)" stroke-width="2"/>
<path d="M102.617 243.171C102.877 243.171 103.083 243.108 103.237 242.981C103.39 242.848 103.467 242.668 103.467 242.441V240.811H104.297V242.411C104.297 242.658 104.363 242.848 104.497 242.981C104.637 243.108 104.84 243.171 105.107 243.171H105.377C105.443 243.171 105.477 243.318 105.477 243.611C105.477 243.891 105.443 244.031 105.377 244.031H105.077C104.463 244.031 104.063 243.834 103.877 243.441C103.643 243.834 103.223 244.031 102.617 244.031H99.0865C98.4999 244.031 98.0565 243.878 97.7565 243.571C97.4632 243.264 97.3165 242.841 97.3165 242.301V240.811H98.1465V242.191C98.1465 242.844 98.4765 243.171 99.1365 243.171H102.617ZM102.117 239.181V239.971H99.4765V239.181H102.117ZM106.079 243.171C106.372 243.171 106.599 243.101 106.759 242.961C106.926 242.821 107.009 242.628 107.009 242.381V240.811H107.849V242.381C107.849 242.908 108.146 243.171 108.739 243.171C109.032 243.171 109.259 243.101 109.419 242.961C109.586 242.821 109.669 242.628 109.669 242.381V240.811H110.499V242.381C110.499 242.634 110.569 242.831 110.709 242.971C110.856 243.104 111.069 243.171 111.349 243.171C111.622 243.171 111.832 243.101 111.979 242.961C112.132 242.821 112.209 242.628 112.209 242.381V240.811H113.039V242.381C113.039 242.908 113.302 243.171 113.829 243.171H114.119C114.192 243.171 114.229 243.318 114.229 243.611C114.229 243.784 114.219 243.898 114.199 243.951C114.179 244.004 114.152 244.031 114.119 244.031H113.829C113.189 244.031 112.776 243.834 112.589 243.441C112.356 243.834 111.942 244.031 111.349 244.031C110.676 244.031 110.242 243.824 110.049 243.411C109.802 243.824 109.366 244.031 108.739 244.031C108.032 244.031 107.582 243.824 107.389 243.411C107.142 243.824 106.706 244.031 106.079 244.031H105.299C105.232 244.031 105.199 243.891 105.199 243.611C105.199 243.318 105.232 243.171 105.299 243.171H106.079ZM110.519 237.451V238.241H109.609V237.451H110.519ZM111.379 238.821V239.611H108.739V238.821H111.379ZM120.172 243.171C120.239 243.171 120.272 243.318 120.272 243.611C120.272 243.891 120.239 244.031 120.172 244.031C119.732 244.031 119.402 244.091 119.182 244.211C118.962 244.331 118.759 244.568 118.572 244.921L117.752 246.431H117.292C116.572 246.431 116.009 246.231 115.602 245.831C115.195 245.438 114.992 244.878 114.992 244.151V244.031H114.052C113.985 244.031 113.952 243.891 113.952 243.611C113.952 243.318 113.985 243.171 114.052 243.171H114.992V242.101C114.992 241.434 115.159 240.908 115.492 240.521C115.825 240.134 116.279 239.941 116.852 239.941C117.405 239.941 117.842 240.101 118.162 240.421C118.482 240.734 118.642 241.164 118.642 241.711C118.642 242.138 118.522 242.524 118.282 242.871C118.042 243.218 117.705 243.491 117.272 243.691C116.845 243.891 116.362 243.994 115.822 244.001V244.121C115.822 244.621 115.942 244.991 116.182 245.231C116.429 245.478 116.799 245.601 117.292 245.601L117.902 244.481C118.102 244.121 118.295 243.851 118.482 243.671C118.675 243.484 118.902 243.354 119.162 243.281C119.422 243.208 119.759 243.171 120.172 243.171ZM117.812 241.761C117.812 241.448 117.725 241.208 117.552 241.041C117.385 240.868 117.149 240.781 116.842 240.781C116.515 240.781 116.262 240.894 116.082 241.121C115.909 241.348 115.822 241.674 115.822 242.101V243.171C116.435 243.171 116.919 243.044 117.272 242.791C117.632 242.538 117.812 242.194 117.812 241.761ZM121.3 243.171C121.56 243.171 121.767 243.104 121.92 242.971C122.073 242.838 122.15 242.658 122.15 242.431V240.811H122.98V242.411C122.98 242.658 123.047 242.848 123.18 242.981C123.32 243.108 123.52 243.171 123.78 243.171H124.06C124.127 243.171 124.16 243.314 124.16 243.601C124.16 243.888 124.127 244.031 124.06 244.031H123.75C123.137 244.031 122.737 243.834 122.55 243.441C122.317 243.834 121.9 244.031 121.3 244.031H120.1C120.033 244.031 120 243.891 120 243.611C120 243.318 120.033 243.171 120.1 243.171H121.3ZM120.61 246.121V245.291H121.67V246.121H120.61ZM126.67 242.441C126.67 242.934 126.52 243.324 126.22 243.611C125.92 243.891 125.523 244.031 125.03 244.031H123.99C123.923 244.031 123.89 243.891 123.89 243.611C123.89 243.318 123.923 243.171 123.99 243.171H125.03C125.27 243.171 125.463 243.108 125.61 242.981C125.763 242.848 125.84 242.664 125.84 242.431V240.811H126.67V242.441ZM126.11 245.291V246.081H123.47V245.291H126.11ZM131.992 241.201C132.205 241.448 132.358 241.681 132.452 241.901C132.545 242.114 132.592 242.331 132.592 242.551C132.592 242.991 132.438 243.348 132.132 243.621C131.825 243.894 131.395 244.031 130.842 244.031H127.992L127.912 243.171H130.842C131.135 243.171 131.362 243.114 131.522 243.001C131.682 242.888 131.762 242.734 131.762 242.541C131.762 242.421 131.728 242.301 131.662 242.181C131.602 242.054 131.498 241.904 131.352 241.731L129.482 239.581L130.072 238.991L131.992 241.201ZM135.548 243.741C135.548 244.294 135.438 244.778 135.218 245.191C134.998 245.604 134.688 245.921 134.288 246.141C133.895 246.361 133.441 246.471 132.928 246.471H132.228L132.148 245.611H132.908C133.475 245.611 133.918 245.444 134.238 245.111C134.558 244.784 134.718 244.328 134.718 243.741V240.811H135.548V243.741ZM137.175 237.561H138.005V244.031H137.175V237.561Z" fill="#222222"/>
<path d="M182.773 241.201C182.987 241.448 183.14 241.681 183.233 241.901C183.327 242.114 183.373 242.331 183.373 242.551C183.373 242.991 183.22 243.348 182.913 243.621C182.607 243.894 182.177 244.031 181.623 244.031H178.773L178.693 243.171H181.623C181.917 243.171 182.143 243.114 182.303 243.001C182.463 242.888 182.543 242.734 182.543 242.541C182.543 242.421 182.51 242.301 182.443 242.181C182.383 242.054 182.28 241.904 182.133 241.731L180.263 239.581L180.853 238.991L182.773 241.201ZM184.994 237.561H185.824V244.031H184.994V237.561ZM191.256 241.201C191.469 241.448 191.623 241.681 191.716 241.901C191.809 242.114 191.856 242.331 191.856 242.551C191.856 242.991 191.703 243.348 191.396 243.621C191.089 243.894 190.659 244.031 190.106 244.031H187.256L187.176 243.171H190.106C190.399 243.171 190.626 243.114 190.786 243.001C190.946 242.888 191.026 242.734 191.026 242.541C191.026 242.421 190.993 242.301 190.926 242.181C190.866 242.054 190.763 241.904 190.616 241.731L188.746 239.581L189.336 238.991L191.256 241.201ZM194.813 242.401C194.813 242.648 194.883 242.838 195.023 242.971C195.169 243.104 195.379 243.171 195.653 243.171H195.783C195.849 243.171 195.883 243.318 195.883 243.611C195.883 243.891 195.849 244.031 195.783 244.031H195.653C195.473 244.031 195.306 244.001 195.153 243.941C194.999 243.874 194.886 243.791 194.813 243.691V243.811C194.806 244.344 194.693 244.811 194.473 245.211C194.253 245.618 193.946 245.928 193.553 246.141C193.159 246.361 192.706 246.471 192.193 246.471H191.493L191.413 245.611H192.173C192.739 245.611 193.183 245.444 193.503 245.111C193.823 244.784 193.983 244.328 193.983 243.741V240.811H194.813V242.401ZM196.405 243.171C196.905 243.171 197.322 243.131 197.655 243.051C197.989 242.971 198.332 242.831 198.685 242.631L200.205 241.741C200.099 241.381 199.952 241.131 199.765 240.991C199.585 240.851 199.312 240.781 198.945 240.781H196.605L196.715 239.911H199.085C199.485 239.911 199.815 239.978 200.075 240.111C200.335 240.244 200.552 240.464 200.725 240.771C200.899 241.071 201.049 241.488 201.175 242.021L199.075 243.321C198.649 243.588 198.239 243.774 197.845 243.881C197.452 243.981 196.962 244.031 196.375 244.031H195.705C195.639 244.031 195.605 243.891 195.605 243.611C195.605 243.318 195.639 243.171 195.705 243.171H196.405ZM197.865 238.741V237.911H198.925V238.741H197.865Z" fill="#222222"/>
<path d="M257.39 245.611C257.956 245.611 258.4 245.444 258.72 245.111C259.04 244.784 259.2 244.328 259.2 243.741V240.811H260.03V242.401C260.03 242.648 260.1 242.838 260.24 242.971C260.386 243.104 260.596 243.171 260.87 243.171H261C261.066 243.171 261.1 243.318 261.1 243.611C261.1 243.891 261.066 244.031 261 244.031H260.87C260.69 244.031 260.523 244.001 260.37 243.941C260.216 243.874 260.103 243.791 260.03 243.691V243.811C260.023 244.344 259.91 244.811 259.69 245.211C259.47 245.618 259.163 245.928 258.77 246.141C258.376 246.361 257.923 246.471 257.41 246.471H257.13L257.05 245.611H257.39ZM262.812 243.171C263.072 243.171 263.279 243.104 263.432 242.971C263.586 242.838 263.662 242.658 263.662 242.431V240.811H264.492V242.411C264.492 242.658 264.559 242.848 264.692 242.981C264.832 243.108 265.032 243.171 265.292 243.171H265.572C265.639 243.171 265.672 243.314 265.672 243.601C265.672 243.888 265.639 244.031 265.572 244.031H265.262C264.649 244.031 264.249 243.834 264.062 243.441C263.829 243.834 263.412 244.031 262.812 244.031H260.922C260.856 244.031 260.822 243.891 260.822 243.611C260.822 243.318 260.856 243.171 260.922 243.171H262.812ZM263.442 245.291V246.081H260.802V245.291H263.442ZM268.176 242.441C268.176 242.934 268.026 243.324 267.726 243.611C267.426 243.891 267.029 244.031 266.536 244.031H265.496C265.429 244.031 265.396 243.891 265.396 243.611C265.396 243.318 265.429 243.171 265.496 243.171H266.536C266.776 243.171 266.969 243.108 267.116 242.981C267.269 242.848 267.346 242.664 267.346 242.431V240.811H268.176V242.441ZM268.486 238.821V239.611H265.846V238.821H268.486Z" fill="#222222"/>
<path d="M329.28 241.201C329.493 241.448 329.646 241.681 329.74 241.901C329.833 242.114 329.88 242.331 329.88 242.551C329.88 242.991 329.726 243.348 329.42 243.621C329.113 243.894 328.683 244.031 328.13 244.031H325.28L325.2 243.171H328.13C328.423 243.171 328.65 243.114 328.81 243.001C328.97 242.888 329.05 242.734 329.05 242.541C329.05 242.421 329.016 242.301 328.95 242.181C328.89 242.054 328.786 241.904 328.64 241.731L326.77 239.581L327.36 238.991L329.28 241.201ZM331.501 237.561H332.331V244.031H331.501V237.561ZM337.763 241.201C337.976 241.448 338.129 241.681 338.223 241.901C338.316 242.114 338.363 242.331 338.363 242.551C338.363 242.991 338.209 243.348 337.903 243.621C337.596 243.894 337.166 244.031 336.613 244.031H333.763L333.683 243.171H336.613C336.906 243.171 337.133 243.114 337.293 243.001C337.453 242.888 337.533 242.734 337.533 242.541C337.533 242.421 337.499 242.301 337.433 242.181C337.373 242.054 337.269 241.904 337.123 241.731L335.253 239.581L335.843 238.991L337.763 241.201ZM341.319 242.401C341.319 242.648 341.389 242.838 341.529 242.971C341.676 243.104 341.886 243.171 342.159 243.171H342.289C342.356 243.171 342.389 243.318 342.389 243.611C342.389 243.891 342.356 244.031 342.289 244.031H342.159C341.979 244.031 341.812 244.001 341.659 243.941C341.506 243.874 341.392 243.791 341.319 243.691V243.811C341.312 244.344 341.199 244.811 340.979 245.211C340.759 245.618 340.452 245.928 340.059 246.141C339.666 246.361 339.212 246.471 338.699 246.471H337.999L337.919 245.611H338.679C339.246 245.611 339.689 245.444 340.009 245.111C340.329 244.784 340.489 244.328 340.489 243.741V240.811H341.319V242.401ZM342.442 243.171C342.915 243.171 343.152 242.958 343.152 242.531V242.121C343.152 241.481 343.322 240.978 343.662 240.611C344.002 240.244 344.468 240.061 345.062 240.061C345.655 240.061 346.112 240.234 346.432 240.581C346.752 240.928 346.912 241.428 346.912 242.081C346.912 242.701 346.745 243.181 346.412 243.521C346.078 243.861 345.618 244.031 345.032 244.031C344.338 244.031 343.872 243.824 343.632 243.411C343.518 243.624 343.368 243.781 343.182 243.881C342.995 243.981 342.748 244.031 342.442 244.031H342.212C342.145 244.031 342.112 243.891 342.112 243.611C342.112 243.318 342.145 243.171 342.212 243.171H342.442ZM346.082 242.081C346.082 241.294 345.732 240.901 345.032 240.901C344.678 240.901 344.415 241.001 344.242 241.201C344.068 241.401 343.982 241.708 343.982 242.121C343.982 242.448 344.072 242.704 344.252 242.891C344.438 243.078 344.698 243.171 345.032 243.171C345.732 243.171 346.082 242.808 346.082 242.081Z" fill="#222222"/>
<path d="M396.88 243.741C396.88 244.294 396.77 244.778 396.55 245.191C396.33 245.604 396.02 245.921 395.62 246.141C395.226 246.361 394.773 246.471 394.26 246.471H393.98L393.9 245.611H394.24C394.806 245.611 395.25 245.444 395.57 245.111C395.89 244.784 396.05 244.328 396.05 243.741V240.811H396.88V243.741ZM403.156 243.171C403.19 243.171 403.213 243.201 403.226 243.261C403.246 243.314 403.256 243.431 403.256 243.611C403.256 243.784 403.246 243.898 403.226 243.951C403.213 244.004 403.19 244.031 403.156 244.031H402.196C402.136 244.791 401.876 245.388 401.416 245.821C400.956 246.254 400.356 246.471 399.616 246.471H398.386L398.306 245.611H399.626C400.16 245.611 400.583 245.468 400.896 245.181C401.216 244.901 401.38 244.518 401.386 244.031H400.386C399.7 244.031 399.203 243.891 398.896 243.611C398.596 243.324 398.446 242.881 398.446 242.281C398.446 241.868 398.526 241.501 398.686 241.181C398.846 240.854 399.07 240.604 399.356 240.431C399.65 240.251 399.98 240.161 400.346 240.161C400.926 240.161 401.383 240.354 401.716 240.741C402.05 241.128 402.216 241.658 402.216 242.331V243.171H403.156ZM399.276 242.231C399.276 242.571 399.36 242.814 399.526 242.961C399.7 243.101 400.003 243.171 400.436 243.171H401.386V242.391C401.386 241.931 401.293 241.584 401.106 241.351C400.92 241.118 400.65 241.001 400.296 241.001C399.99 241.001 399.743 241.114 399.556 241.341C399.37 241.568 399.276 241.864 399.276 242.231ZM405.488 243.171C405.728 243.171 405.922 243.108 406.068 242.981C406.215 242.848 406.288 242.664 406.288 242.431V240.811H407.128V242.441C407.128 242.934 406.978 243.324 406.678 243.611C406.378 243.891 405.982 244.031 405.488 244.031H403.078C403.012 244.031 402.978 243.891 402.978 243.611C402.978 243.318 403.012 243.171 403.078 243.171H405.488ZM405.818 245.291V246.081H403.178V245.291H405.818ZM407.452 245.611C408.019 245.611 408.462 245.444 408.782 245.111C409.102 244.784 409.262 244.328 409.262 243.741V240.811H410.092V242.401C410.092 242.648 410.162 242.838 410.302 242.971C410.449 243.104 410.659 243.171 410.932 243.171H411.062C411.129 243.171 411.162 243.318 411.162 243.611C411.162 243.891 411.129 244.031 411.062 244.031H410.932C410.752 244.031 410.586 244.001 410.432 243.941C410.279 243.874 410.166 243.791 410.092 243.691V243.811C410.086 244.344 409.972 244.811 409.752 245.211C409.532 245.618 409.226 245.928 408.832 246.141C408.439 246.361 407.986 246.471 407.472 246.471H407.192L407.112 245.611H407.452ZM417.105 243.171C417.172 243.171 417.205 243.318 417.205 243.611C417.205 243.891 417.172 244.031 417.105 244.031C416.665 244.031 416.335 244.091 416.115 244.211C415.895 244.331 415.692 244.568 415.505 244.921L414.685 246.431H414.225C413.505 246.431 412.942 246.231 412.535 245.831C412.128 245.438 411.925 244.878 411.925 244.151V244.031H410.985C410.918 244.031 410.885 243.891 410.885 243.611C410.885 243.318 410.918 243.171 410.985 243.171H411.925V242.101C411.925 241.434 412.092 240.908 412.425 240.521C412.758 240.134 413.212 239.941 413.785 239.941C414.338 239.941 414.775 240.101 415.095 240.421C415.415 240.734 415.575 241.164 415.575 241.711C415.575 242.138 415.455 242.524 415.215 242.871C414.975 243.218 414.638 243.491 414.205 243.691C413.778 243.891 413.295 243.994 412.755 244.001V244.121C412.755 244.621 412.875 244.991 413.115 245.231C413.362 245.478 413.732 245.601 414.225 245.601L414.835 244.481C415.035 244.121 415.228 243.851 415.415 243.671C415.608 243.484 415.835 243.354 416.095 243.281C416.355 243.208 416.692 243.171 417.105 243.171ZM414.745 241.761C414.745 241.448 414.658 241.208 414.485 241.041C414.318 240.868 414.082 240.781 413.775 240.781C413.448 240.781 413.195 240.894 413.015 241.121C412.842 241.348 412.755 241.674 412.755 242.101V243.171C413.368 243.171 413.852 243.044 414.205 242.791C414.565 242.538 414.745 242.194 414.745 241.761ZM417.813 243.171C418.106 243.171 418.333 243.101 418.493 242.961C418.66 242.821 418.743 242.628 418.743 242.381V240.811H419.583V242.381C419.583 242.908 419.88 243.171 420.473 243.171C420.766 243.171 420.993 243.101 421.153 242.961C421.32 242.821 421.403 242.628 421.403 242.381V240.811H422.233V242.381C422.233 242.634 422.303 242.831 422.443 242.971C422.59 243.104 422.803 243.171 423.083 243.171C423.363 243.171 423.576 243.104 423.723 242.971C423.87 242.831 423.943 242.634 423.943 242.381V240.811H424.773V242.361C424.773 242.881 424.62 243.291 424.313 243.591C424.013 243.884 423.603 244.031 423.083 244.031C422.41 244.031 421.976 243.824 421.783 243.411C421.536 243.824 421.1 244.031 420.473 244.031C419.766 244.031 419.316 243.824 419.123 243.411C418.876 243.824 418.44 244.031 417.813 244.031H417.033C416.966 244.031 416.933 243.891 416.933 243.611C416.933 243.318 416.966 243.171 417.033 243.171H417.813ZM422.253 237.451V238.241H421.343V237.451H422.253ZM423.113 238.821V239.611H420.473V238.821H423.113Z" fill="#222222"/>
<path d="M475.36 245.569C475.927 245.569 476.37 245.402 476.69 245.069C477.01 244.742 477.17 244.286 477.17 243.699V240.769H478V242.359C478 242.606 478.07 242.796 478.21 242.929C478.357 243.062 478.567 243.129 478.84 243.129H478.97C479.037 243.129 479.07 243.276 479.07 243.569C479.07 243.849 479.037 243.989 478.97 243.989H478.84C478.66 243.989 478.494 243.959 478.34 243.899C478.187 243.832 478.074 243.749 478 243.649V243.769C477.994 244.302 477.88 244.769 477.66 245.169C477.44 245.576 477.134 245.886 476.74 246.099C476.347 246.319 475.894 246.429 475.38 246.429H475.1L475.02 245.569H475.36ZM485.013 243.129C485.08 243.129 485.113 243.276 485.113 243.569C485.113 243.849 485.08 243.989 485.013 243.989C484.573 243.989 484.243 244.049 484.023 244.169C483.803 244.289 483.6 244.526 483.413 244.879L482.593 246.389H482.133C481.413 246.389 480.85 246.189 480.443 245.789C480.036 245.396 479.833 244.836 479.833 244.109V243.989H478.893C478.826 243.989 478.793 243.849 478.793 243.569C478.793 243.276 478.826 243.129 478.893 243.129H479.833V242.059C479.833 241.392 480 240.866 480.333 240.479C480.666 240.092 481.12 239.899 481.693 239.899C482.246 239.899 482.683 240.059 483.003 240.379C483.323 240.692 483.483 241.122 483.483 241.669C483.483 242.096 483.363 242.482 483.123 242.829C482.883 243.176 482.546 243.449 482.113 243.649C481.686 243.849 481.203 243.952 480.663 243.959V244.079C480.663 244.579 480.783 244.949 481.023 245.189C481.27 245.436 481.64 245.559 482.133 245.559L482.743 244.439C482.943 244.079 483.136 243.809 483.323 243.629C483.516 243.442 483.743 243.312 484.003 243.239C484.263 243.166 484.6 243.129 485.013 243.129ZM482.653 241.719C482.653 241.406 482.566 241.166 482.393 240.999C482.226 240.826 481.99 240.739 481.683 240.739C481.356 240.739 481.103 240.852 480.923 241.079C480.75 241.306 480.663 241.632 480.663 242.059V243.129C481.276 243.129 481.76 243.002 482.113 242.749C482.473 242.496 482.653 242.152 482.653 241.719ZM485.171 243.129C485.644 243.129 485.881 242.916 485.881 242.489V242.079C485.881 241.439 486.051 240.936 486.391 240.569C486.731 240.202 487.198 240.019 487.791 240.019C488.384 240.019 488.841 240.192 489.161 240.539C489.481 240.886 489.641 241.386 489.641 242.039C489.641 242.659 489.474 243.139 489.141 243.479C488.808 243.819 488.348 243.989 487.761 243.989C487.068 243.989 486.601 243.782 486.361 243.369C486.248 243.582 486.098 243.739 485.911 243.839C485.724 243.939 485.478 243.989 485.171 243.989H484.941C484.874 243.989 484.841 243.849 484.841 243.569C484.841 243.276 484.874 243.129 484.941 243.129H485.171ZM488.811 242.039C488.811 241.252 488.461 240.859 487.761 240.859C487.408 240.859 487.144 240.959 486.971 241.159C486.798 241.359 486.711 241.666 486.711 242.079C486.711 242.406 486.801 242.662 486.981 242.849C487.168 243.036 487.428 243.129 487.761 243.129C488.461 243.129 488.811 242.766 488.811 242.039Z" fill="#222222"/>
<path d="M65.7063 227.587C66.033 227.587 66.3463 227.681 66.6463 227.867C66.953 228.047 67.1963 228.287 67.3763 228.587C67.563 228.881 67.6563 229.191 67.6563 229.517C67.6563 229.844 67.563 230.157 67.3763 230.457C67.1963 230.757 66.953 231.001 66.6463 231.187C66.3463 231.367 66.033 231.457 65.7063 231.457C65.3796 231.457 65.063 231.364 64.7563 231.177C64.4563 230.991 64.213 230.751 64.0263 230.457C63.8396 230.157 63.7463 229.844 63.7463 229.517C63.7463 229.191 63.8396 228.881 64.0263 228.587C64.213 228.287 64.4563 228.047 64.7563 227.867C65.063 227.681 65.3796 227.587 65.7063 227.587ZM65.7063 230.657C65.893 230.657 66.073 230.604 66.2463 230.497C66.4263 230.384 66.573 230.241 66.6863 230.067C66.7996 229.887 66.8563 229.704 66.8563 229.517C66.8563 229.337 66.7996 229.161 66.6863 228.987C66.573 228.807 66.4263 228.664 66.2463 228.557C66.073 228.444 65.893 228.387 65.7063 228.387C65.5196 228.387 65.3363 228.444 65.1563 228.557C64.9763 228.664 64.8296 228.807 64.7163 228.987C64.603 229.161 64.5463 229.337 64.5463 229.517C64.5463 229.704 64.603 229.887 64.7163 230.067C64.8296 230.241 64.9763 230.384 65.1563 230.497C65.3363 230.604 65.5196 230.657 65.7063 230.657Z" fill="#444444"/>
<g clip-path="url(#clip0_2_13205)">
<path d="M51.4992 182.505L46.4992 188.505H50.9992L50.4992 192.505L55.4992 186.505H50.9992L51.4992 182.505Z" stroke="#C2C9CC" stroke-linecap="round" stroke-linejoin="round"/>
</g>
<path d="M62.316 186.403C62.136 186.403 61.976 186.376 61.836 186.323C61.7027 186.27 61.6027 186.193 61.536 186.093C61.5427 186.24 61.546 186.493 61.546 186.853V189.503H60.716V186.863C60.716 186.21 60.6827 185.643 60.616 185.163C60.5493 184.683 60.416 184.1 60.216 183.413L61.016 183.133L61.466 184.883C61.586 185.323 61.8493 185.543 62.256 185.543C62.4693 185.543 62.6493 185.476 62.796 185.343C62.9493 185.21 63.026 185.043 63.026 184.843C63.026 184.59 62.9627 184.08 62.836 183.313L63.666 183.133C63.7993 183.953 63.866 184.526 63.866 184.853C63.866 185.146 63.7993 185.413 63.666 185.653C63.5327 185.886 63.346 186.07 63.106 186.203C62.8727 186.336 62.6093 186.403 62.316 186.403ZM67.2522 184.623C67.5789 184.623 67.8922 184.716 68.1922 184.903C68.4989 185.083 68.7422 185.323 68.9222 185.623C69.1089 185.916 69.2022 186.226 69.2022 186.553C69.2022 186.88 69.1089 187.193 68.9222 187.493C68.7422 187.793 68.4989 188.036 68.1922 188.223C67.8922 188.403 67.5789 188.493 67.2522 188.493C66.9255 188.493 66.6089 188.4 66.3022 188.213C66.0022 188.026 65.7589 187.786 65.5722 187.493C65.3855 187.193 65.2922 186.88 65.2922 186.553C65.2922 186.226 65.3855 185.916 65.5722 185.623C65.7589 185.323 66.0022 185.083 66.3022 184.903C66.6089 184.716 66.9255 184.623 67.2522 184.623ZM67.2522 187.693C67.4389 187.693 67.6189 187.64 67.7922 187.533C67.9722 187.42 68.1189 187.276 68.2322 187.103C68.3455 186.923 68.4022 186.74 68.4022 186.553C68.4022 186.373 68.3455 186.196 68.2322 186.023C68.1189 185.843 67.9722 185.7 67.7922 185.593C67.6189 185.48 67.4389 185.423 67.2522 185.423C67.0655 185.423 66.8822 185.48 66.7022 185.593C66.5222 185.7 66.3755 185.843 66.2622 186.023C66.1489 186.196 66.0922 186.373 66.0922 186.553C66.0922 186.74 66.1489 186.923 66.2622 187.103C66.3755 187.276 66.5222 187.42 66.7022 187.533C66.8822 187.64 67.0655 187.693 67.2522 187.693Z" fill="#444444"/>
<g clip-path="url(#clip1_2_13205)">
<path d="M49.4992 142.505L44.4992 148.505H48.9992L48.4992 152.505L53.4992 146.505H48.9992L49.4992 142.505Z" stroke="#C2C9CC" stroke-linecap="round" stroke-linejoin="round"/>
</g>
<path d="M59.7812 145.873C59.6812 145.753 59.6045 145.606 59.5512 145.433C59.4978 145.253 59.4712 145.073 59.4712 144.893C59.4712 144.573 59.5512 144.28 59.7112 144.013C59.8778 143.74 60.1012 143.526 60.3812 143.373C60.6678 143.213 60.9845 143.133 61.3312 143.133C61.7245 143.133 62.1412 143.233 62.5812 143.433L62.3512 144.193C61.9912 144.04 61.6612 143.963 61.3612 143.963C61.0478 143.963 60.7912 144.06 60.5912 144.253C60.3978 144.446 60.3012 144.683 60.3012 144.963C60.3012 145.256 60.3812 145.503 60.5412 145.703C60.7078 145.896 60.9045 145.993 61.1312 145.993C61.5712 145.993 62.0778 145.866 62.6512 145.613L62.8712 146.373C62.1845 146.693 61.5012 146.853 60.8212 146.853C60.4412 146.853 60.0978 146.81 59.7912 146.723C59.4912 146.63 59.2512 146.51 59.0712 146.363C59.0778 146.483 59.0812 146.676 59.0812 146.943V149.503H58.2512V146.863C58.2512 146.21 58.2178 145.643 58.1512 145.163C58.0845 144.683 57.9512 144.1 57.7512 143.413L58.5512 143.133C58.7178 143.733 58.8645 144.396 58.9912 145.123C59.0245 145.303 59.0978 145.456 59.2112 145.583C59.3312 145.71 59.5212 145.806 59.7812 145.873ZM66.2522 144.623C66.5789 144.623 66.8922 144.716 67.1922 144.903C67.4989 145.083 67.7422 145.323 67.9222 145.623C68.1089 145.916 68.2022 146.226 68.2022 146.553C68.2022 146.88 68.1089 147.193 67.9222 147.493C67.7422 147.793 67.4989 148.036 67.1922 148.223C66.8922 148.403 66.5789 148.493 66.2522 148.493C65.9255 148.493 65.6089 148.4 65.3022 148.213C65.0022 148.026 64.7589 147.786 64.5722 147.493C64.3855 147.193 64.2922 146.88 64.2922 146.553C64.2922 146.226 64.3855 145.916 64.5722 145.623C64.7589 145.323 65.0022 145.083 65.3022 144.903C65.6089 144.716 65.9255 144.623 66.2522 144.623ZM66.2522 147.693C66.4389 147.693 66.6189 147.64 66.7922 147.533C66.9722 147.42 67.1189 147.276 67.2322 147.103C67.3455 146.923 67.4022 146.74 67.4022 146.553C67.4022 146.373 67.3455 146.196 67.2322 146.023C67.1189 145.843 66.9722 145.7 66.7922 145.593C66.6189 145.48 66.4389 145.423 66.2522 145.423C66.0655 145.423 65.8822 145.48 65.7022 145.593C65.5222 145.7 65.3755 145.843 65.2622 146.023C65.1489 146.196 65.0922 146.373 65.0922 146.553C65.0922 146.74 65.1489 146.923 65.2622 147.103C65.3755 147.276 65.5222 147.42 65.7022 147.533C65.8822 147.64 66.0655 147.693 66.2522 147.693Z" fill="#444444"/>
<g clip-path="url(#clip2_2_13205)">
<path d="M49.9992 101.505L44.9992 107.505H49.4992L48.9992 111.505L53.9992 105.505H49.4992L49.9992 101.505Z" stroke="#C2C9CC" stroke-linecap="round" stroke-linejoin="round"/>
</g>
<path d="M62.364 105.153C61.464 105.9 60.5807 107.043 59.714 108.583L59.014 108.193C59.254 107.76 59.5307 107.32 59.844 106.873C60.1573 106.42 60.464 106.03 60.764 105.703C60.6307 105.75 60.4773 105.773 60.304 105.773C59.764 105.773 59.3407 105.62 59.034 105.313C58.734 105.006 58.584 104.596 58.584 104.083C58.584 103.736 58.664 103.413 58.824 103.113C58.984 102.813 59.2007 102.576 59.474 102.403C59.754 102.223 60.0573 102.133 60.384 102.133C60.604 102.133 60.8073 102.16 60.994 102.213C61.1873 102.26 61.394 102.34 61.614 102.453L61.324 103.143C61.024 103.023 60.7207 102.963 60.414 102.963C60.134 102.963 59.8973 103.066 59.704 103.273C59.5107 103.473 59.414 103.716 59.414 104.003C59.414 104.31 59.504 104.543 59.684 104.703C59.864 104.863 60.1273 104.943 60.474 104.943C60.934 104.943 61.434 104.813 61.974 104.553L62.364 105.153ZM65.7522 103.623C66.0789 103.623 66.3922 103.716 66.6922 103.903C66.9989 104.083 67.2422 104.323 67.4222 104.623C67.6089 104.916 67.7022 105.226 67.7022 105.553C67.7022 105.88 67.6089 106.193 67.4222 106.493C67.2422 106.793 66.9989 107.036 66.6922 107.223C66.3922 107.403 66.0789 107.493 65.7522 107.493C65.4255 107.493 65.1089 107.4 64.8022 107.213C64.5022 107.026 64.2589 106.786 64.0722 106.493C63.8855 106.193 63.7922 105.88 63.7922 105.553C63.7922 105.226 63.8855 104.916 64.0722 104.623C64.2589 104.323 64.5022 104.083 64.8022 103.903C65.1089 103.716 65.4255 103.623 65.7522 103.623ZM65.7522 106.693C65.9389 106.693 66.1189 106.64 66.2922 106.533C66.4722 106.42 66.6189 106.276 66.7322 106.103C66.8455 105.923 66.9022 105.74 66.9022 105.553C66.9022 105.373 66.8455 105.196 66.7322 105.023C66.6189 104.843 66.4722 104.7 66.2922 104.593C66.1189 104.48 65.9389 104.423 65.7522 104.423C65.5655 104.423 65.3822 104.48 65.2022 104.593C65.0222 104.7 64.8755 104.843 64.7622 105.023C64.6489 105.196 64.5922 105.373 64.5922 105.553C64.5922 105.74 64.6489 105.923 64.7622 106.103C64.8755 106.276 65.0222 106.42 65.2022 106.533C65.3822 106.64 65.5655 106.693 65.7522 106.693Z" fill="#444444"/>
<g clip-path="url(#clip3_2_13205)">
<path d="M49.4992 61.5049L44.4992 67.5049H48.9992L48.4992 71.5049L53.4992 65.5049H48.9992L49.4992 61.5049Z" stroke="#C2C9CC" stroke-linecap="round" stroke-linejoin="round"/>
</g>
<path d="M60.8658 62.1631C61.0591 63.3231 61.3291 64.3797 61.6758 65.3331C62.0291 66.2797 62.4891 67.1964 63.0558 68.0831L62.3758 68.5831C61.8891 67.8231 61.4824 67.0331 61.1558 66.2131C60.8291 65.3864 60.5958 64.5597 60.4558 63.7331C60.1291 65.5531 59.5091 67.1697 58.5958 68.5831L57.8758 68.0831C58.4158 67.2631 58.8624 66.3797 59.2158 65.4331C59.5691 64.4797 59.8591 63.3897 60.0858 62.1631H60.8658ZM66.2522 63.6231C66.5789 63.6231 66.8922 63.7164 67.1922 63.9031C67.4989 64.0831 67.7422 64.3231 67.9222 64.6231C68.1089 64.9164 68.2022 65.2264 68.2022 65.5531C68.2022 65.8797 68.1089 66.1931 67.9222 66.4931C67.7422 66.7931 67.4989 67.0364 67.1922 67.2231C66.8922 67.4031 66.5789 67.4931 66.2522 67.4931C65.9255 67.4931 65.6089 67.3997 65.3022 67.2131C65.0022 67.0264 64.7589 66.7864 64.5722 66.4931C64.3855 66.1931 64.2922 65.8797 64.2922 65.5531C64.2922 65.2264 64.3855 64.9164 64.5722 64.6231C64.7589 64.3231 65.0022 64.0831 65.3022 63.9031C65.6089 63.7164 65.9255 63.6231 66.2522 63.6231ZM66.2522 66.6931C66.4389 66.6931 66.6189 66.6397 66.7922 66.5331C66.9722 66.4197 67.1189 66.2764 67.2322 66.1031C67.3455 65.9231 67.4022 65.7397 67.4022 65.5531C67.4022 65.3731 67.3455 65.1964 67.2322 65.0231C67.1189 64.8431 66.9722 64.6997 66.7922 64.5931C66.6189 64.4797 66.4389 64.4231 66.2522 64.4231C66.0655 64.4231 65.8822 64.4797 65.7022 64.5931C65.5222 64.6997 65.3755 64.8431 65.2622 65.0231C65.1489 65.1964 65.0922 65.3731 65.0922 65.5531C65.0922 65.7397 65.1489 65.9231 65.2622 66.1031C65.3755 66.2764 65.5222 66.4197 65.7022 66.5331C65.8822 66.6397 66.0655 66.6931 66.2522 66.6931Z" fill="#444444"/>
<g clip-path="url(#clip4_2_13205)">
<path d="M48.4992 20.5049L43.4992 26.5049H47.9992L47.4992 30.5049L52.4992 24.5049H47.9992L48.4992 20.5049Z" stroke="#C2C9CC" stroke-linecap="round" stroke-linejoin="round"/>
</g>
<path d="M57.3926 24.8631C57.3926 24.2097 57.3592 23.6431 57.2926 23.1631C57.2259 22.6831 57.0926 22.0997 56.8926 21.4131L57.7026 21.1331C57.9092 21.8131 58.0459 22.4064 58.1126 22.9131C58.1859 23.4131 58.2226 24.0597 58.2226 24.8531V27.5031H57.3926V24.8631ZM61.8194 22.6231C62.146 22.6231 62.4594 22.7164 62.7594 22.9031C63.066 23.0831 63.3094 23.3231 63.4894 23.6231C63.676 23.9164 63.7694 24.2264 63.7694 24.5531C63.7694 24.8797 63.676 25.1931 63.4894 25.4931C63.3094 25.7931 63.066 26.0364 62.7594 26.2231C62.4594 26.4031 62.146 26.4931 61.8194 26.4931C61.4927 26.4931 61.176 26.3997 60.8694 26.2131C60.5694 26.0264 60.326 25.7864 60.1394 25.4931C59.9527 25.1931 59.8594 24.8797 59.8594 24.5531C59.8594 24.2264 59.9527 23.9164 60.1394 23.6231C60.326 23.3231 60.5694 23.0831 60.8694 22.9031C61.176 22.7164 61.4927 22.6231 61.8194 22.6231ZM61.8194 25.6931C62.006 25.6931 62.186 25.6397 62.3594 25.5331C62.5394 25.4197 62.686 25.2764 62.7994 25.1031C62.9127 24.9231 62.9694 24.7397 62.9694 24.5531C62.9694 24.3731 62.9127 24.1964 62.7994 24.0231C62.686 23.8431 62.5394 23.6997 62.3594 23.5931C62.186 23.4797 62.006 23.4231 61.8194 23.4231C61.6327 23.4231 61.4494 23.4797 61.2694 23.5931C61.0894 23.6997 60.9427 23.8431 60.8294 24.0231C60.716 24.1964 60.6594 24.3731 60.6594 24.5531C60.6594 24.7397 60.716 24.9231 60.8294 25.1031C60.9427 25.2764 61.0894 25.4197 61.2694 25.5331C61.4494 25.6397 61.6327 25.6931 61.8194 25.6931ZM67.2522 22.6231C67.5789 22.6231 67.8922 22.7164 68.1922 22.9031C68.4989 23.0831 68.7422 23.3231 68.9222 23.6231C69.1089 23.9164 69.2022 24.2264 69.2022 24.5531C69.2022 24.8797 69.1089 25.1931 68.9222 25.4931C68.7422 25.7931 68.4989 26.0364 68.1922 26.2231C67.8922 26.4031 67.5789 26.4931 67.2522 26.4931C66.9255 26.4931 66.6089 26.3997 66.3022 26.2131C66.0022 26.0264 65.7589 25.7864 65.5722 25.4931C65.3855 25.1931 65.2922 24.8797 65.2922 24.5531C65.2922 24.2264 65.3855 23.9164 65.5722 23.6231C65.7589 23.3231 66.0022 23.0831 66.3022 22.9031C66.6089 22.7164 66.9255 22.6231 67.2522 22.6231ZM67.2522 25.6931C67.4389 25.6931 67.6189 25.6397 67.7922 25.5331C67.9722 25.4197 68.1189 25.2764 68.2322 25.1031C68.3455 24.9231 68.4022 24.7397 68.4022 24.5531C68.4022 24.3731 68.3455 24.1964 68.2322 24.0231C68.1189 23.8431 67.9722 23.6997 67.7922 23.5931C67.6189 23.4797 67.4389 23.4231 67.2522 23.4231C67.0655 23.4231 66.8822 23.4797 66.7022 23.5931C66.5222 23.6997 66.3755 23.8431 66.2622 24.0231C66.1489 24.1964 66.0922 24.3731 66.0922 24.5531C66.0922 24.7397 66.1489 24.9231 66.2622 25.1031C66.3755 25.2764 66.5222 25.4197 66.7022 25.5331C66.8822 25.6397 67.0655 25.6931 67.2522 25.6931Z" fill="#444444"/>
<defs>
<linearGradient id="paint0_linear_2_13205" x1="300.081" y1="66.1512" x2="300.081" y2="188.154" gradientUnits="userSpaceOnUse">
<stop stop-color="#3DC793"/>
<stop offset="0.5" stop-color="#8E8E8E"/>
<stop offset="1" stop-color="#E02D2D"/>
</linearGradient>
<clipPath id="clip0_2_13205">
<rect width="12" height="12" fill="white" transform="translate(45 181.503)"/>
</clipPath>
<clipPath id="clip1_2_13205">
<rect width="12" height="12" fill="white" transform="translate(43 141.503)"/>
</clipPath>
<clipPath id="clip2_2_13205">
<rect width="12" height="12" fill="white" transform="translate(43.5 100.503)"/>
</clipPath>
<clipPath id="clip3_2_13205">
<rect width="12" height="12" fill="white" transform="translate(43 60.5031)"/>
</clipPath>
<clipPath id="clip4_2_13205">
<rect width="12" height="12" fill="white" transform="translate(42 19.5031)"/>
</clipPath>
</defs>
</svg>
