<svg width="89" height="89" viewBox="0 0 89 89" fill="none" xmlns="http://www.w3.org/2000/svg">
<path d="M18.3352 76.9944L18.3415 69.664C18.3449 65.7757 19.8927 62.0481 22.6445 59.301C25.3963 56.554 29.1266 55.0126 33.0149 55.0159L55.0059 55.0348C58.8942 55.0382 62.6219 56.586 65.3689 59.3378C68.116 62.0895 69.6574 65.8199 69.654 69.7081L69.6477 77.0385M29.3749 25.6913C29.3679 33.7882 35.9261 40.3577 44.023 40.3647C52.1199 40.3716 58.6894 33.8134 58.6963 25.7166C58.7033 17.6197 52.1451 11.0502 44.0482 11.0432C35.9513 11.0363 29.3819 17.5945 29.3749 25.6913Z" stroke="#667880" stroke-opacity="0.08" stroke-width="1.5" stroke-linecap="round" stroke-linejoin="round"/>
</svg>
