<svg width="24" height="24" viewBox="0 0 24 24" fill="none" xmlns="http://www.w3.org/2000/svg">
<path d="M9.00161 11.9971L11.0016 13.9971L15.0016 9.99707M12.0016 2.99707C10.8016 2.99707 9.60161 3.59707 9.00161 4.69707C8.40282 4.54376 7.77463 4.54722 7.17756 4.7071C6.58049 4.86698 6.03463 5.17789 5.59257 5.60991C5.15051 6.04193 4.82712 6.58049 4.65356 7.17373C4.48 7.76697 4.46211 8.39491 4.60161 8.99707C3.60161 9.59707 2.90161 10.7971 2.90161 11.9971C2.90161 13.1971 3.60161 14.3971 4.60161 14.9971C4.30161 16.1971 4.60161 17.4971 5.60161 18.3971C6.40161 19.1971 7.70161 19.5971 8.90161 19.3971C9.50161 20.3971 10.7016 20.9971 11.9016 20.9971C13.1016 20.9971 14.3016 20.3971 14.9016 19.2971C16.1016 19.5971 17.4016 19.2971 18.3016 18.2971C19.1016 17.4971 19.5016 16.2971 19.3016 14.9971C20.3016 14.3971 20.9016 13.1971 20.9016 11.9971C20.9016 10.7971 20.3016 9.59707 19.2016 8.99707C19.5016 7.79707 19.2016 6.49707 18.2016 5.59707C17.7741 5.175 17.2502 4.86338 16.6752 4.68915C16.1003 4.51492 15.4915 4.48331 14.9016 4.59707C14.3016 3.59707 13.1016 2.99707 11.9016 2.99707H12.0016Z" stroke="#177EE5" stroke-width="2" stroke-linecap="round" stroke-linejoin="round"/>
</svg>
